<svg xmlns="http://www.w3.org/2000/svg" width="512" height="512" viewBox="0 0 512 512"><defs><linearGradient id="a" x1="0" x2="0" y1="20" y2="480" gradientUnits="userSpaceOnUse"><stop offset="0" stop-color="#fff0b5"/><stop offset=".2" stop-color="#f2c865"/><stop offset=".5" stop-color="#a8741f"/><stop offset=".6" stop-color="#c99333"/><stop offset=".8" stop-color="#f5d27a"/><stop offset="1" stop-color="#9a6a1c"/></linearGradient></defs><rect width="512" height="512" fill="#0d0d0d" rx="96"/><g fill="url(#a)" transform="matrix(.7 0 0 .7 116 38)"><path fill-rule="evenodd" d="m200 44-30 106-36-58-30 68-42-56 18 102-4 52q124-20 248 0l-4-52 18-102-42 56-30-68-36 58Zm0 169 10.4 13-10.4 13-10.4-13Zm-62 7 8 10-8 10-8-10Zm124 0 8 10-8 10-8-10Z"/><path d="m200 6 14 21-14 21-14-21Zm-79 77a13 13 0 1 0 26 0 13 13 0 1 0-26 0m132 0a13 13 0 1 0 26 0 13 13 0 1 0-26 0M51 95a11 11 0 1 0 22 0 11 11 0 1 0-22 0m276 0a11 11 0 1 0 22 0 11 11 0 1 0-22 0"/></g><path fill="url(#a)" d="m279.4 330.6 70.9 106.8q6.8 10.6 14.3 16 7.4 5.5 16.3 5.7v2.9H350l-11.7-.3q-8.6-.3-19.7-2.6-11.2-2.2-22.5-8.2-11.2-6-19.5-17.5-2.3-3.1-6-8.7l-8.2-12.6-9-14.1-8.3-13.1-6-9.9-2.2-3.9ZM344 264l-86.3 104.3L237 371l78.4-107Zm20.3-2v2.6H363q-9.4 0-17.5 3.8-8.2 3.9-13.9 10.2L305 278q3.5-4.9 1.3-9.1-2.1-4.3-8.1-4.3h-2.9V262H363Zm-136.6 0v200h-58.6V262ZM170 441.1V462h-22.9v-2.9h3.8q7.4 0 12.7-5.2T169 441Zm0-158.2h-.9q-.2-7.5-5.5-12.8-5.3-5.2-12.7-5.2H147V262h23ZM226.9 441h.8q.3 7.5 5.6 12.8 5.3 5.2 12.7 5.2h3.7v2.9H227Zm0-158.2V262h22.8v2.9H246q-7.4 0-12.7 5.2t-5.6 12.8Z"/></svg>